<?xml version="1.0" standalone="no"?>
<!DOCTYPE svg PUBLIC "-//W3C//DTD SVG 20010904//EN"
 "http://www.w3.org/TR/2001/REC-SVG-20010904/DTD/svg10.dtd">
<svg version="1.0" xmlns="http://www.w3.org/2000/svg"
 width="600.000000pt" height="1032.000000pt" viewBox="0 0 600.000000 1032.000000"
 preserveAspectRatio="xMidYMid meet">
<g transform="translate(0.000000,1032.000000) scale(0.100000,-0.100000)"
fill="#6b4630" stroke="none">
<path d="M3290 9938 c-14 -23 -20 -51 -20 -89 0 -45 -7 -70 -31 -115 -61 -113
-72 -139 -77 -182 -4 -37 0 -49 28 -89 34 -46 31 -62 -11 -63 -30 0 -47 -34
-57 -115 -6 -44 -16 -106 -23 -137 -15 -66 -4 -101 36 -120 49 -22 101 27 107
103 4 50 -19 47 -42 -5 -14 -33 -25 -46 -40 -46 -28 0 -33 18 -19 76 6 27 15
82 19 122 4 41 12 78 17 83 15 15 144 12 192 -5 24 -9 54 -16 67 -16 29 0 44
-26 44 -77 0 -21 5 -56 10 -78 20 -77 28 -140 23 -168 -9 -47 -43 -28 -43 24
0 28 -29 23 -36 -5 -8 -33 3 -65 34 -93 25 -23 26 -26 11 -51 -12 -22 -23 -28
-57 -30 -53 -4 -45 -22 9 -22 29 0 39 -4 39 -16 0 -13 -9 -15 -47 -12 -68 4
-70 -16 -3 -22 30 -3 54 -9 52 -14 -2 -8 -27 -9 -131 -2 -13 0 -26 -4 -28 -10
-4 -12 48 -24 107 -24 42 0 65 -13 55 -30 -5 -8 -28 -11 -68 -8 -42 2 -61 -1
-64 -9 -3 -9 10 -13 49 -13 68 0 94 -15 41 -23 -21 -4 -50 -7 -65 -7 -16 0
-28 -4 -28 -10 0 -6 28 -10 65 -10 57 0 65 -2 65 -19 0 -16 -7 -19 -51 -17
-72 2 -75 -20 -4 -29 50 -6 55 -9 55 -31 0 -21 -5 -24 -34 -24 -19 0 -41 -3
-50 -6 -28 -11 -6 -24 40 -24 44 0 45 -1 42 -27 -3 -27 -6 -28 -60 -31 -74 -4
-76 -22 -4 -22 57 0 70 -7 60 -34 -4 -11 -19 -16 -48 -16 -22 0 -51 -3 -63 -6
-40 -11 -14 -24 48 -24 46 0 59 -3 59 -15 0 -11 -12 -15 -49 -15 -28 0 -53 -4
-56 -10 -4 -6 15 -10 49 -10 31 0 56 -4 56 -10 0 -5 -13 -10 -29 -10 -17 0
-33 -4 -36 -10 -4 -6 9 -10 30 -10 47 0 42 -22 -6 -31 -37 -7 -37 -9 -2 -13
45 -5 41 -36 -3 -36 -14 0 -22 -4 -19 -10 3 -5 17 -10 31 -10 19 0 24 -5 24
-25 0 -20 -5 -25 -24 -25 -27 0 -47 -19 -22 -21 9 -1 22 -2 29 -3 6 0 12 -8
12 -16 0 -10 -14 -17 -45 -20 -54 -6 -52 -25 3 -25 48 0 47 -28 -1 -35 -40 -6
-38 -25 3 -26 28 0 31 -4 27 -34 -1 -5 -22 -10 -47 -10 -57 0 -59 -18 -2 -22
l42 -3 3 -57 c3 -56 2 -58 -22 -58 -36 0 -41 -17 -6 -24 38 -7 39 -24 3 -32
-53 -11 -58 -18 -15 -22 50 -4 57 -26 11 -36 -35 -7 -30 -26 7 -26 30 0 34
-35 4 -43 -26 -7 -26 -27 1 -27 29 0 21 -33 -10 -40 -38 -9 -37 -28 1 -32 22
-2 34 -9 36 -20 3 -14 -6 -19 -37 -24 -52 -8 -52 -20 -1 -29 48 -8 43 -25 -6
-25 -48 0 -40 -24 10 -28 29 -3 36 -7 34 -20 -2 -12 -15 -18 -41 -20 -50 -4
-47 -22 4 -22 33 0 40 -3 37 -17 -2 -14 -15 -19 -51 -21 -54 -4 -65 -22 -13
-22 48 0 66 -9 66 -32 0 -10 -4 -16 -10 -13 -13 8 -80 -5 -80 -16 0 -5 17 -9
39 -9 37 0 68 -19 54 -33 -3 -4 -24 -7 -45 -7 -21 0 -38 -4 -38 -10 0 -5 18
-10 40 -10 27 0 40 -4 40 -14 0 -16 -30 -26 -77 -26 -57 0 -36 -19 25 -22 43
-2 57 -7 57 -18 0 -11 -12 -15 -44 -16 -62 -1 -63 -20 -1 -29 67 -9 66 -45 -1
-45 -11 0 -17 -4 -14 -10 3 -5 19 -10 36 -10 16 0 29 -5 29 -11 0 -8 -15 -9
-46 -4 -61 9 -56 -14 7 -29 57 -14 60 -39 4 -47 -40 -5 -34 -15 14 -21 14 -2
26 -9 29 -15 2 -9 -10 -13 -42 -13 -25 0 -46 -4 -46 -10 0 -5 13 -10 29 -10
42 0 61 -10 61 -31 0 -15 -7 -19 -40 -19 -29 0 -40 -4 -40 -15 0 -8 9 -15 19
-15 51 0 70 -33 26 -44 -14 -4 -25 -11 -25 -16 0 -13 29 -13 68 1 25 9 33 18
38 47 4 21 1 285 -7 587 -15 544 -15 597 12 1100 7 127 13 312 13 413 1 136 4
185 14 191 17 10 32 66 32 118 0 23 -11 77 -24 120 -13 43 -27 99 -31 125 -8
58 -32 80 -109 97 -31 7 -56 16 -56 20 0 5 11 29 25 53 37 67 41 121 15 203
-12 39 -25 117 -29 173 -7 98 -16 121 -44 122 -4 0 -16 -15 -27 -32z m45 -257
c25 -78 22 -119 -15 -195 -36 -75 -39 -75 -89 0 -24 37 -28 50 -21 73 12 44
94 191 101 183 4 -4 14 -31 24 -61z"/>
<path d="M5532 9658 c-5 -7 -13 -33 -17 -57 -4 -24 -23 -72 -41 -108 -19 -35
-41 -93 -49 -129 -21 -87 -7 -137 56 -217 34 -41 49 -70 49 -89 0 -20 -4 -28
-12 -24 -49 20 -121 37 -129 29 -5 -5 -4 -24 3 -45 10 -33 8 -44 -15 -97 -40
-91 -43 -125 -17 -151 20 -20 30 -22 76 -17 64 7 60 21 35 -151 -20 -134 -16
-181 17 -215 27 -27 71 -25 94 3 23 28 10 47 -21 30 -55 -29 -66 21 -45 208
18 177 13 214 -28 188 -32 -19 -71 -27 -87 -16 -12 7 -11 18 9 72 13 34 23 82
23 106 0 23 1 42 2 42 2 0 23 -9 47 -20 37 -16 64 -19 147 -18 87 2 101 4 101
19 0 24 -46 39 -110 37 -50 -3 -55 -1 -52 17 6 33 29 77 64 123 27 35 33 54
36 106 4 56 0 73 -31 142 -20 44 -41 109 -47 146 -5 37 -13 74 -16 82 -7 19
-28 21 -42 4z m28 -166 c0 -8 14 -44 30 -82 32 -72 38 -132 19 -174 -17 -36
-29 -22 -29 33 0 27 -6 56 -15 67 -15 19 -15 19 -35 -5 -11 -13 -23 -35 -26
-50 -3 -14 -9 -35 -14 -46 -7 -18 -10 -16 -24 17 -21 50 -8 119 41 209 34 64
52 74 53 31z"/>
<path d="M1117 9333 c-4 -3 -7 -21 -7 -39 0 -17 -16 -74 -36 -125 -59 -153
-57 -244 7 -290 29 -20 35 -42 23 -86 -5 -19 -13 -23 -46 -23 -91 0 -116 -52
-93 -195 12 -74 13 -111 5 -159 -7 -45 -7 -79 1 -117 7 -31 12 -165 13 -309 1
-261 8 -310 41 -310 23 0 29 45 17 119 -7 36 -14 154 -17 261 -3 107 -10 218
-15 245 -6 30 -7 77 -2 117 5 38 5 92 1 120 -24 162 -24 153 7 177 18 14 35
20 49 16 68 -21 93 -18 122 12 15 17 36 41 45 54 15 22 18 22 32 9 14 -14 15
-40 7 -225 -4 -116 -7 -223 -5 -240 1 -16 8 -84 15 -150 7 -66 18 -138 26
-160 13 -37 12 -40 -8 -56 -19 -14 -20 -18 -8 -37 20 -31 0 -46 -64 -47 -75 0
-75 -19 1 -23 67 -3 87 -22 23 -22 -22 0 -43 -4 -46 -10 -4 -6 12 -10 40 -10
28 0 44 -4 40 -10 -3 -5 -22 -10 -41 -10 -19 0 -34 -4 -34 -10 0 -5 18 -10 41
-10 33 0 40 -3 37 -17 -2 -14 -15 -19 -51 -21 -59 -4 -52 -22 9 -22 31 0 44
-4 44 -14 0 -18 -22 -26 -71 -26 -21 0 -39 -4 -39 -10 0 -5 23 -10 51 -10 59
0 65 -23 8 -28 -55 -5 -59 -22 -6 -22 35 0 47 -4 47 -15 0 -10 -11 -15 -35
-15 -19 0 -35 -4 -35 -10 0 -5 16 -10 36 -10 28 0 35 -3 32 -17 -2 -11 -14
-19 -31 -21 -37 -4 -35 -22 3 -22 40 0 40 -26 -1 -34 -35 -7 -30 -26 7 -26 31
0 31 -18 -1 -26 -35 -9 -31 -24 6 -24 45 0 31 -23 -19 -33 -52 -10 -46 -27 9
-27 49 0 49 -23 1 -28 -43 -4 -41 -22 3 -22 28 0 35 -4 35 -19 0 -19 -25 -31
-67 -31 -13 0 -23 -4 -23 -10 0 -5 21 -10 46 -10 38 0 45 -3 42 -17 -2 -12
-14 -19 -36 -21 -43 -4 -41 -22 3 -22 28 0 35 -4 35 -20 0 -13 -7 -20 -19 -20
-26 0 -51 -10 -51 -21 0 -5 16 -9 36 -9 42 0 43 -23 1 -28 -33 -4 -26 -22 9
-22 41 0 26 -18 -21 -26 -25 -3 -45 -10 -45 -15 0 -5 20 -9 45 -9 25 0 45 -4
45 -10 0 -5 -13 -10 -30 -10 -39 0 -39 -19 0 -26 37 -8 29 -24 -11 -24 -16 0
-29 -4 -29 -10 0 -5 16 -10 35 -10 19 0 35 -4 35 -10 0 -5 -13 -10 -29 -10
-17 0 -32 -4 -35 -9 -7 -10 17 -21 45 -21 32 0 21 -19 -13 -22 -18 -2 -33 -7
-33 -13 0 -5 15 -11 33 -13 43 -4 41 -22 -3 -22 -19 0 -35 -4 -35 -10 0 -5 15
-10 34 -10 47 0 55 -18 11 -22 -46 -4 -46 -22 0 -26 19 -2 35 -7 35 -12 0 -5
-16 -10 -35 -12 -45 -4 -46 -21 -3 -29 34 -6 28 -12 -24 -23 -44 -10 -33 -26
17 -26 25 0 45 -4 45 -9 0 -10 -34 -21 -67 -21 -13 0 -23 -4 -23 -10 0 -5 20
-10 45 -10 38 0 45 -3 45 -20 0 -17 -7 -20 -42 -20 -47 0 -43 -10 9 -25 49
-14 47 -29 -6 -35 -65 -7 -66 -30 -2 -30 40 0 49 -3 45 -14 -3 -9 -22 -16 -45
-18 -49 -4 -52 -22 -4 -26 37 -3 50 -22 15 -22 -25 0 -27 -27 -2 -33 9 -3 2
-5 -15 -6 -40 -1 -47 -31 -8 -31 14 0 25 -6 25 -12 0 -9 4 -8 10 2 8 12 10 10
10 -8 0 -13 -4 -21 -9 -17 -15 9 -24 -15 -11 -30 9 -11 5 -15 -23 -20 -30 -6
-282 -1 -330 7 -29 4 -14 19 43 42 31 13 55 29 55 37 0 22 -59 15 -113 -13
-42 -22 -47 -28 -47 -59 0 -29 5 -36 35 -51 53 -26 57 -31 85 -125 14 -49 31
-101 37 -117 16 -39 64 -93 98 -111 61 -32 160 -41 160 -15 0 4 -24 14 -52 20
-73 17 -100 33 -133 76 -25 33 -85 202 -85 239 0 9 48 14 178 18 97 4 205 12
240 18 35 6 65 9 68 6 3 -3 -2 -19 -10 -35 -9 -17 -30 -79 -47 -139 -34 -120
-49 -149 -85 -165 -26 -12 -33 -48 -9 -48 57 0 105 65 130 176 25 108 46 166
77 212 16 24 28 52 26 65 -4 26 -45 48 -105 55 -35 4 -43 2 -43 -12 0 -10 11
-19 30 -23 64 -12 43 -30 -49 -40 l-56 -5 3 118 c6 178 6 158 -4 754 -14 778
-13 849 8 880 16 24 16 31 3 80 -35 135 -48 316 -41 550 6 219 6 226 -14 248
-24 26 -72 29 -95 6 -8 -9 -22 -29 -30 -45 -26 -49 -38 -36 -33 35 4 51 14 80
49 142 60 109 60 150 -1 272 -42 85 -57 102 -73 85z m53 -153 c31 -60 26 -101
-20 -177 -22 -37 -40 -72 -40 -77 -1 -27 -40 40 -40 68 0 49 59 226 75 226 3
0 14 -18 25 -40z"/>
<path d="M3157 9003 c-9 -8 -9 -106 -1 -127 9 -22 51 -20 64 3 15 28 12 51 -5
51 -8 0 -15 -4 -15 -10 0 -5 -4 -10 -10 -10 -5 0 -10 23 -10 50 0 46 -7 60
-23 43z"/>
<path d="M5720 8961 c-14 -28 -12 -152 5 -315 16 -151 14 -161 -34 -149 -22 5
-23 4 -16 -23 4 -16 10 -81 12 -145 4 -115 4 -116 -19 -123 -13 -3 -36 -6 -51
-6 -19 0 -27 -4 -24 -12 3 -8 19 -12 46 -10 23 1 41 -2 41 -8 0 -5 -11 -10
-24 -10 -38 0 -86 -12 -86 -21 0 -5 27 -9 60 -9 83 0 75 -16 -11 -22 -39 -3
-76 -11 -82 -17 -13 -13 -7 -14 81 -11 50 1 62 -1 62 -14 0 -10 -12 -16 -42
-18 -60 -4 -63 -28 -3 -28 54 0 58 -19 7 -35 -40 -12 -41 -25 -2 -25 20 0 30
-5 30 -15 0 -9 -9 -15 -22 -15 -34 0 -68 -11 -68 -21 0 -5 20 -9 45 -9 38 0
45 -3 45 -20 0 -15 -9 -21 -40 -26 -22 -4 -40 -10 -40 -15 0 -5 18 -9 40 -9
27 0 40 -4 40 -14 0 -8 -16 -16 -40 -20 -49 -8 -53 -26 -5 -26 24 0 35 -5 35
-15 0 -9 -9 -15 -24 -15 -33 0 -57 -10 -50 -21 3 -5 21 -9 40 -9 48 0 40 -24
-9 -28 -25 -2 -37 -8 -37 -18 0 -11 9 -15 32 -12 24 2 34 -1 36 -14 2 -13 -5
-17 -34 -20 -54 -4 -57 -28 -4 -28 34 0 41 -3 38 -17 -2 -11 -15 -20 -33 -23
-40 -7 -36 -26 4 -22 22 3 31 -1 31 -11 0 -17 -21 -27 -55 -27 -13 0 -27 -4
-30 -10 -4 -6 12 -10 39 -10 34 0 46 -4 46 -15 0 -11 -11 -15 -37 -15 -21 0
-45 -5 -53 -10 -17 -11 -20 -10 55 -13 33 -2 40 -6 40 -22 0 -15 -8 -21 -34
-25 -50 -7 -54 -32 -5 -28 29 2 39 -1 42 -14 2 -12 -7 -18 -37 -23 -53 -9 -53
-25 -1 -25 55 0 53 -24 -2 -36 -53 -11 -51 -29 2 -25 30 2 40 -1 40 -12 0 -10
-15 -17 -45 -21 -59 -9 -59 -29 0 -24 25 2 45 -1 45 -7 0 -5 -17 -11 -37 -13
-21 -2 -42 -7 -47 -12 -10 -10 38 -25 53 -16 14 9 41 -4 41 -20 0 -8 -10 -14
-22 -14 -34 0 -68 -11 -68 -21 0 -5 18 -9 40 -9 22 0 40 -4 40 -9 0 -5 -18
-12 -40 -16 -51 -9 -52 -25 -1 -25 52 0 63 -25 15 -34 -45 -9 -44 -26 2 -26
28 0 35 -3 32 -17 -2 -13 -14 -19 -41 -21 -47 -4 -49 -22 -2 -22 42 0 49 -27
8 -32 -39 -4 -42 -28 -4 -28 45 0 38 -17 -10 -25 -50 -9 -47 -31 4 -27 32 3
37 1 37 -17 0 -17 -6 -21 -29 -21 -43 0 -47 -18 -6 -26 19 -3 35 -10 35 -14 0
-11 -26 -20 -56 -20 -13 0 -24 -4 -24 -10 0 -5 18 -10 40 -10 29 0 40 -4 40
-15 0 -10 -11 -15 -35 -15 -19 0 -35 -4 -35 -10 0 -5 7 -10 15 -10 23 0 29 -1
48 -11 29 -16 19 -29 -23 -29 -50 0 -53 -18 -3 -22 52 -4 56 -28 4 -28 -49 0
-55 -17 -8 -22 46 -4 34 -23 -13 -19 -53 3 -51 -13 2 -25 51 -11 60 -30 19
-39 -40 -8 -40 -25 -1 -25 17 0 30 -4 30 -9 0 -14 -180 -25 -194 -11 -18 18
-13 877 7 1137 20 248 22 451 6 576 -11 79 -14 90 -36 98 -40 15 -47 53 -29
150 18 94 21 226 6 249 -13 20 -17 4 -24 -95 -3 -44 -13 -104 -21 -134 -12
-37 -15 -72 -11 -115 26 -262 31 -601 15 -911 -12 -232 -16 -899 -5 -932 7
-22 5 -23 -48 -23 -30 0 -57 4 -60 9 -8 12 13 28 46 36 35 9 59 35 32 35 -52
-1 -100 -21 -126 -52 -33 -40 -34 -49 -7 -74 32 -28 39 -48 61 -153 25 -124
57 -182 120 -221 27 -17 47 -34 45 -38 -3 -4 -1 -17 4 -30 11 -28 29 -20 29
13 0 21 5 24 43 27 46 3 58 21 17 26 -53 6 -118 34 -143 60 -35 37 -53 82 -72
188 -9 49 -18 96 -20 104 -4 13 20 15 173 15 97 0 215 4 261 8 l84 8 -7 -23
c-4 -13 -11 -59 -17 -103 -22 -163 -30 -188 -63 -220 -17 -17 -41 -37 -53 -45
-24 -16 -35 -70 -16 -77 7 -3 15 6 18 20 4 14 20 31 40 40 65 31 101 103 111
221 7 91 20 132 55 180 47 64 33 106 -35 106 -30 0 -42 -16 -26 -35 11 -13 5
-15 -42 -15 l-55 0 -6 676 c-4 432 -2 695 4 729 5 30 11 189 13 354 l2 300 28
26 c28 26 28 28 22 103 -4 42 -14 118 -21 167 -8 50 -15 127 -15 173 0 81 -9
101 -30 63z"/>
<path d="M3124 8774 c-4 -15 -3 -109 2 -208 5 -100 7 -370 5 -601 -2 -231 -4
-646 -5 -923 -1 -500 -1 -502 -22 -502 -11 0 -29 6 -39 14 -17 12 -17 16 -6
30 22 26 0 41 -36 24 -41 -19 -43 -59 -5 -87 37 -26 62 -86 62 -149 0 -70 16
-115 58 -162 l38 -43 104 -9 c58 -5 126 -6 152 -3 64 8 70 -11 8 -24 -59 -13
-154 -13 -225 -1 -27 5 -59 10 -69 12 -38 6 -28 -23 13 -39 46 -18 52 -40 21
-68 -25 -23 -25 -49 -1 -72 18 -17 19 -25 9 -98 l-10 -80 -59 -23 -58 -23 -57
32 c-106 60 -251 76 -357 40 -155 -54 -265 -136 -321 -242 -16 -30 -30 -55
-32 -57 -1 -2 -13 3 -26 12 -34 22 -45 9 -50 -65 -8 -98 -86 -245 -182 -344
-34 -35 -57 -47 -138 -74 -220 -70 -418 -19 -493 129 -42 83 -69 205 -69 310
-1 101 11 140 42 140 30 0 122 51 138 75 12 18 13 28 4 44 -24 46 -121 68
-128 29 -2 -12 8 -20 38 -28 51 -14 42 -31 -27 -54 -76 -26 -344 -16 -377 14
-11 11 26 42 66 56 41 13 48 34 13 34 -32 0 -61 -14 -98 -48 -48 -45 -29 -81
54 -102 29 -7 59 -24 78 -44 27 -28 32 -43 41 -117 14 -106 51 -248 91 -345
114 -273 444 -363 734 -200 29 16 47 20 53 14 17 -17 73 20 128 83 151 172
179 201 214 219 22 11 53 20 69 20 38 0 61 9 61 24 -1 6 -9 29 -20 51 -26 54
-25 106 4 163 55 107 188 182 320 182 123 -1 230 -105 229 -223 -1 -49 -47
-158 -69 -165 -7 -1 -14 12 -18 31 -7 38 -27 60 -70 77 -56 21 -136 -49 -136
-120 0 -14 8 -41 19 -60 43 -82 169 -106 272 -52 47 24 58 36 89 96 32 64 35
76 35 160 0 88 -1 93 -45 176 -25 47 -46 88 -48 92 -4 9 52 38 73 38 8 0 15
-8 15 -19 0 -23 38 -73 51 -66 5 4 1 17 -7 31 -14 20 -16 41 -10 120 4 53 10
103 14 112 6 14 24 17 122 17 123 0 160 6 184 31 20 19 20 29 0 48 -24 24 -62
21 -66 -6 -3 -22 -8 -23 -108 -26 -114 -3 -155 2 -144 19 4 7 38 10 93 8 71
-3 86 -1 86 11 0 14 -21 20 -132 36 -69 10 -29 21 75 20 153 0 248 40 215 93
-9 15 -7 31 13 85 13 37 24 88 25 114 1 89 14 137 49 181 27 33 32 46 24 59
-13 20 -77 37 -102 27 -16 -6 -16 -7 0 -19 16 -11 10 -16 -50 -39 -96 -38
-145 -48 -231 -50 l-76 -2 0 820 c-1 830 -9 1109 -40 1315 -8 52 -14 104 -12
114 3 30 -22 30 -29 0z m456 -2218 c0 -2 -6 -19 -14 -37 -7 -19 -16 -77 -19
-130 -6 -99 -17 -142 -44 -171 -14 -16 -36 -18 -163 -18 -139 0 -148 1 -167
23 -36 39 -47 70 -54 147 -4 41 -10 84 -14 96 -6 21 -5 21 92 16 120 -5 216
10 303 48 65 28 80 33 80 26z m-675 -800 c45 -14 131 -63 123 -71 -2 -2 -31
10 -65 27 -53 26 -73 30 -135 30 -243 -3 -435 -196 -385 -387 7 -30 6 -31 -36
-42 -55 -15 -112 -66 -231 -206 -93 -111 -105 -121 -176 -147 -187 -69 -259
-81 -365 -61 -70 13 -164 57 -217 101 -21 17 -53 59 -73 94 -46 83 -102 260
-115 365 -7 49 -19 100 -30 119 l-19 32 64 0 c36 0 65 -1 65 -2 0 -2 -7 -25
-15 -52 -8 -27 -15 -70 -15 -96 0 -74 39 -208 90 -310 41 -81 55 -99 92 -121
108 -64 228 -89 336 -69 68 12 252 87 252 102 0 5 30 43 66 86 79 93 111 144
134 220 10 32 24 57 31 57 25 1 38 15 70 81 36 74 102 152 155 184 19 12 71
37 117 56 76 33 87 35 158 29 42 -3 98 -12 124 -19z m225 -314 c0 -111 -46
-199 -117 -223 -51 -17 -51 -4 -1 40 51 45 96 134 100 199 4 63 18 51 18 -16z
m-222 -104 c16 -16 15 -90 -2 -113 -13 -18 -15 -18 -45 12 -35 35 -39 58 -15
91 17 24 43 29 62 10z"/>
<path d="M3445 6483 c-22 -8 -70 -17 -108 -21 -81 -8 -93 -26 -19 -30 64 -4
152 20 177 48 22 24 10 25 -50 3z"/>
<path d="M3125 6444 c4 -11 10 -48 12 -84 5 -83 10 -100 23 -80 14 22 12 121
-3 149 -15 30 -44 43 -32 15z"/>
<path d="M3190 6419 c0 -11 5 -17 10 -14 6 3 10 13 10 21 0 8 -4 14 -10 14 -5
0 -10 -9 -10 -21z"/>
<path d="M1220 5576 c0 -10 9 -16 25 -16 14 0 25 5 25 10 0 6 -4 10 -9 10 -5
0 -16 3 -25 6 -11 4 -16 1 -16 -10z"/>
<path d="M1093 8543 c3 -93 12 -199 19 -238 12 -65 15 -70 38 -70 35 0 47 42
55 196 6 102 5 131 -8 162 -26 61 -39 47 -36 -40 2 -43 2 -112 0 -153 l-3 -75
-14 70 c-7 39 -13 114 -13 167 -1 99 -12 148 -32 148 -9 0 -10 -44 -6 -167z"/>
<path d="M3360 7810 c0 -5 14 -10 30 -10 17 0 30 5 30 10 0 6 -13 10 -30 10
-16 0 -30 -4 -30 -10z"/>
<path d="M1006 7623 c-9 -57 -7 -240 4 -392 5 -75 12 -289 15 -476 5 -403 12
-504 32 -512 8 -3 18 -2 23 3 22 23 -18 1220 -45 1382 -8 43 -21 41 -29 -5z"/>
<path d="M1086 7271 c-3 -5 1 -14 9 -21 12 -10 15 -10 15 3 0 19 -16 31 -24
18z"/>
<path d="M5329 6265 c-9 -8 16 -156 26 -158 15 -3 18 38 5 98 -11 51 -21 71
-31 60z"/>
<path d="M1100 6101 c0 -15 28 -19 149 -23 77 -2 116 1 118 8 2 7 -17 14 -49
17 -80 10 -218 8 -218 -2z"/>
<path d="M1034 6068 c4 -13 14 -48 23 -78 18 -65 40 -110 53 -110 6 0 10 4 10
9 0 16 -42 146 -56 174 -18 33 -39 37 -30 5z"/>
<path d="M5395 6038 c8 -28 48 -64 53 -49 4 12 -38 70 -51 70 -5 1 -5 -9 -2
-21z"/>
<path d="M1377 5983 c-20 -39 -30 -90 -19 -97 5 -3 18 22 29 55 21 63 14 90
-10 42z"/>
<path d="M3455 5910 c-15 -17 -19 -38 -19 -113 -1 -125 17 -130 24 -7 l5 95
18 -39 c12 -24 18 -59 17 -95 -2 -76 -2 -81 10 -81 5 0 13 15 18 33 7 26 13
32 37 32 39 1 43 20 6 33 -21 8 -31 19 -36 44 -9 38 -46 118 -55 118 -4 0 -15
-9 -25 -20z"/>
<path d="M3247 5913 c-10 -10 -8 -223 2 -223 12 0 21 62 21 153 0 71 -6 88
-23 70z"/>
<path d="M3290 5814 c0 -96 7 -137 21 -128 5 3 9 47 9 98 0 71 -4 97 -15 106
-13 11 -15 1 -15 -76z"/>
<path d="M5762 5881 c-11 -7 -12 -12 -1 -29 17 -26 0 -48 -56 -73 -70 -31
-151 -34 -225 -9 -82 28 -102 44 -90 76 12 31 -5 41 -31 18 -46 -42 -10 -107
78 -140 38 -15 44 -21 39 -39 -3 -13 -1 -48 5 -80 14 -74 1 -132 -57 -250 -47
-96 -103 -177 -144 -206 -40 -30 -160 -43 -249 -29 -108 17 -180 50 -275 124
-112 87 -159 143 -151 176 19 78 20 77 -22 90 -76 25 -159 85 -263 190 -69 70
-121 114 -153 128 -197 91 -424 31 -572 -150 -29 -36 -34 -38 -120 -49 -49 -6
-136 -9 -193 -6 -84 4 -104 2 -109 -9 -7 -20 -1 -24 43 -34 33 -8 226 1 299
14 17 3 23 3 13 0 -28 -9 -44 -72 -39 -156 2 -50 21 -29 22 25 2 49 2 48 8
-18 5 -55 15 -86 43 -135 34 -62 35 -68 28 -127 -9 -73 -43 -148 -77 -170 -36
-24 -56 -79 -48 -138 9 -76 16 -95 32 -95 13 0 14 11 8 67 -4 36 -9 72 -12 79
-3 7 18 34 46 60 56 51 91 114 91 162 0 40 10 45 50 26 24 -12 49 -15 97 -11
79 6 128 40 156 108 16 38 17 51 7 88 -22 82 -81 112 -150 76 -30 -16 -70 -72
-70 -99 0 -30 -29 -16 -55 27 -40 69 -36 138 14 214 41 63 107 115 174 135 45
14 189 -2 234 -25 15 -8 54 -41 85 -73 109 -113 146 -170 157 -248 6 -35 10
-40 58 -58 53 -19 85 -47 221 -189 103 -108 221 -166 389 -191 87 -13 183 -1
291 36 144 48 201 101 281 261 55 110 81 210 88 335 4 64 11 113 20 127 8 11
39 33 69 48 79 39 109 106 62 139 -26 18 -28 19 -46 7z m-1628 -89 c34 -15 81
-56 160 -137 83 -86 129 -124 181 -153 l70 -38 -3 -40 c-4 -52 35 -104 166
-220 151 -135 280 -184 447 -171 164 13 227 55 299 200 63 125 90 238 83 342
l-6 80 50 -1 c28 -1 53 -4 55 -7 10 -9 -36 -236 -60 -300 -34 -90 -57 -132
-116 -212 -28 -38 -53 -71 -54 -72 -1 -1 -17 -5 -36 -8 -19 -3 -73 -17 -120
-30 -170 -48 -269 -41 -445 32 -83 34 -99 46 -205 149 -63 62 -137 125 -163
140 -41 25 -51 37 -66 81 -33 97 -171 247 -274 298 -30 14 -90 33 -134 42 -72
14 -84 14 -135 -1 -134 -39 -228 -168 -228 -313 0 -74 19 -112 83 -168 69 -60
77 -75 36 -75 -48 0 -133 91 -155 165 -46 161 59 352 231 418 63 24 81 27 180
24 88 -2 120 -7 159 -25z m-260 -414 c27 -38 20 -95 -13 -129 -16 -16 -34 -29
-40 -29 -6 0 -20 18 -31 41 -26 49 -20 90 17 119 33 26 48 25 67 -2z"/>
<path d="M3340 5780 c0 -62 4 -100 10 -100 6 0 13 7 16 15 9 23 -6 185 -17
185 -5 0 -9 -45 -9 -100z"/>
<path d="M3397 5873 c-2 -5 -5 -48 -5 -96 -1 -65 2 -87 11 -84 15 5 23 187 8
187 -5 0 -12 -3 -14 -7z"/>
<path d="M5444 5829 c-8 -14 42 -29 101 -29 57 0 105 13 105 29 0 13 -198 13
-206 0z"/>
<path d="M3470 5218 c-1 -85 -6 -147 -14 -171 -16 -43 -4 -59 18 -24 42 63 48
311 9 325 -10 3 -13 -28 -13 -130z"/>
<path d="M3286 5269 c-14 -71 4 -193 39 -259 23 -43 29 0 9 66 -11 36 -18 91
-18 142 0 56 -3 82 -12 82 -6 0 -14 -14 -18 -31z"/>
<path d="M3192 5243 c-4 -10 -6 -48 -6 -85 1 -53 7 -77 28 -113 15 -25 22 -45
17 -45 -15 0 -49 39 -78 88 -14 23 -29 42 -33 42 -19 0 -20 -22 -2 -62 33 -75
132 -142 132 -89 0 10 7 22 16 25 13 5 12 11 -10 36 -33 39 -49 102 -43 163 4
49 -7 72 -21 40z"/>
<path d="M3375 5160 c8 -102 14 -132 26 -124 19 12 0 176 -23 199 -7 7 -8 -18
-3 -75z"/>
<path d="M3549 5155 c-4 -5 -11 -27 -17 -47 -12 -45 3 -62 18 -22 11 29 10 86
-1 69z"/>
<path d="M3237 4944 c-4 -4 -7 -33 -7 -65 0 -55 -2 -61 -43 -101 -59 -60 -114
-175 -128 -268 -22 -144 -12 -198 111 -655 36 -132 40 -158 35 -219 -4 -38
-15 -91 -26 -119 -22 -56 -18 -81 16 -103 18 -12 28 -13 44 -4 26 14 26 24 1
41 l-21 14 21 57 c14 41 20 82 20 140 -1 85 -15 150 -105 463 -30 107 -38 152
-42 253 -7 145 4 207 53 302 51 99 45 95 93 70 59 -29 127 -36 174 -17 64 27
42 55 -31 39 -22 -5 -51 -7 -64 -5 -23 4 -24 8 -20 69 2 35 1 72 -3 81 -7 17
-8 16 -15 -2 -4 -11 -7 -46 -6 -77 2 -81 -16 -55 -23 34 -6 66 -17 89 -34 72z"/>
<path d="M3350 4845 c0 -41 3 -56 13 -52 7 2 12 22 12 52 0 30 -5 50 -12 53
-10 3 -13 -12 -13 -53z"/>
<path d="M3540 4763 c0 -10 16 -42 36 -72 54 -81 66 -117 71 -226 8 -141 -9
-244 -71 -441 -84 -268 -92 -359 -45 -503 l22 -65 -22 -17 c-12 -10 -27 -19
-33 -21 -12 -4 -4 -38 9 -38 4 0 23 9 40 20 45 27 51 60 25 140 -12 36 -24 76
-28 91 -10 47 26 223 76 368 64 184 83 286 84 436 1 139 -18 205 -82 290 -40
52 -82 72 -82 38z"/>
<path d="M3188 4656 c-52 -87 -71 -180 -48 -240 18 -48 30 -28 30 52 0 68 4
87 34 149 31 64 35 83 17 83 -3 0 -18 -20 -33 -44z"/>
<path d="M3530 4608 c0 -7 8 -35 19 -63 28 -75 33 -140 17 -240 -14 -90 -13
-105 5 -105 27 0 64 202 50 277 -15 74 -49 143 -72 143 -10 0 -19 -6 -19 -12z"/>
<path d="M3173 4253 c10 -61 79 -283 88 -283 20 0 0 93 -62 288 -15 45 -33 42
-26 -5z"/>
<path d="M3250 3880 c0 -12 5 -30 11 -41 5 -11 15 -63 22 -116 8 -65 17 -98
26 -101 22 -7 10 183 -15 233 -22 45 -44 57 -44 25z"/>
<path d="M3307 3383 c-18 -17 -1 -23 72 -23 82 0 111 6 111 21 0 10 -173 12
-183 2z"/>
<path d="M3302 3328 c5 -15 68 -22 115 -13 59 11 35 25 -43 25 -56 0 -75 -3
-72 -12z"/>
<path d="M3526 3321 c-4 -6 1 -25 10 -43 13 -24 18 -74 24 -208 5 -122 11
-186 22 -211 35 -80 123 -152 310 -254 124 -67 255 -167 288 -219 12 -21 20
-39 18 -41 -8 -9 -250 -57 -373 -75 -196 -28 -387 -41 -620 -43 -208 -2 -345
13 -528 54 -55 13 -85 0 -48 -21 60 -32 345 -78 536 -86 237 -11 643 26 896
80 61 14 108 21 103 16 -12 -12 -189 -65 -314 -95 -144 -34 -255 -45 -458 -45
-237 0 -486 29 -694 82 -70 18 -90 20 -100 10 -37 -37 62 -71 327 -113 171
-27 653 -39 789 -19 146 21 441 104 495 139 14 9 37 16 51 16 36 0 38 34 4
103 -38 79 -148 185 -249 241 -121 66 -274 171 -327 222 -58 58 -68 92 -78
274 -5 88 -13 153 -23 175 -18 42 -52 76 -61 61z"/>
<path d="M3191 3301 c-28 -28 -39 -76 -51 -221 -5 -69 -15 -143 -21 -165 -20
-73 -147 -178 -414 -341 -151 -92 -217 -177 -219 -283 -1 -82 20 -73 54 22 36
104 74 145 200 223 169 104 306 201 360 253 74 73 87 113 99 314 7 113 14 166
25 183 9 13 16 26 16 29 0 12 -32 3 -49 -14z"/>
<path d="M3247 3043 c-11 -20 -17 -83 -8 -83 13 0 18 9 26 53 5 24 3 37 -3 37
-6 0 -13 -3 -15 -7z"/>
<path d="M3470 2858 c0 -119 48 -223 155 -334 71 -75 79 -80 104 -65 11 7 -5
31 -69 107 -88 105 -123 168 -150 273 -22 83 -40 92 -40 19z"/>
<path d="M3196 2825 c-15 -30 -43 -67 -62 -82 -38 -30 -43 -43 -16 -43 31 0
99 67 117 114 16 41 14 66 -3 66 -4 0 -20 -25 -36 -55z"/>
<path d="M3379 2850 c-4 -26 -2 -42 10 -143 9 -71 12 -147 7 -222 -5 -95 -4
-115 8 -115 20 0 25 19 37 133 11 94 2 254 -18 335 -5 22 -42 32 -44 12z"/>
<path d="M3215 2641 c-35 -67 -69 -113 -140 -189 -52 -55 -95 -103 -95 -106 0
-38 146 73 217 165 50 64 93 153 93 192 0 52 -28 28 -75 -62z"/>
<path d="M2949 2621 c-117 -68 -227 -151 -279 -209 -48 -55 -61 -82 -40 -82 6
0 34 25 62 56 30 32 113 96 195 151 79 52 143 101 143 109 0 20 -8 18 -81 -25z"/>
<path d="M3860 2360 c-47 -10 -132 -26 -190 -35 -101 -16 -131 -27 -117 -41
20 -20 466 57 470 81 3 17 -74 14 -163 -5z"/>
</g>
</svg>
