<?xml version="1.0" standalone="no"?>
<!DOCTYPE svg PUBLIC "-//W3C//DTD SVG 20010904//EN"
 "http://www.w3.org/TR/2001/REC-SVG-20010904/DTD/svg10.dtd">
<svg version="1.0" xmlns="http://www.w3.org/2000/svg"
 width="190.000000pt" height="276.000000pt" viewBox="0 0 190.000000 276.000000"
 preserveAspectRatio="xMidYMid meet">
<g transform="translate(0.000000,276.000000) scale(0.050000,-0.050000)"
fill="#583300" stroke="none">
<path d="M1840 4792 c-11 -11 -20 -45 -20 -75 0 -44 -10 -56 -54 -61 -136 -15
-136 -196 -1 -263 70 -34 75 -43 75 -123 0 -91 32 -142 44 -69 5 36 23 43 121
50 132 10 140 3 49 -40 -112 -53 -265 -204 -326 -320 -36 -69 -71 -111 -92
-111 -51 0 -26 -41 75 -120 116 -91 119 -85 -101 -151 -228 -67 -236 -62 -146
86 183 298 186 436 10 430 -202 -7 -238 -21 -508 -201 -145 -96 -196 -144
-154 -144 12 0 260 143 425 245 l67 41 -65 -124 c-38 -73 -67 -163 -71 -218
l-7 -94 27 81 c39 115 102 233 163 306 56 67 123 87 101 31 -7 -17 -12 -37
-12 -45 0 -7 -32 -49 -71 -93 -39 -44 -103 -143 -142 -220 -40 -77 -74 -143
-77 -146 -3 -3 -65 39 -139 95 -113 86 -191 124 -191 93 0 -13 209 -165 275
-199 36 -19 65 -48 65 -66 0 -29 -4 -29 -45 0 -202 143 -395 245 -395 207 0
-24 38 -49 240 -158 141 -77 158 -93 120 -117 -26 -17 -26 -21 -1 -38 68 -43
-96 -66 -174 -23 -172 91 -521 90 -606 -2 -53 -59 -55 -59 -107 -26 -28 19
-52 26 -52 15 0 -29 165 -176 241 -216 136 -70 198 -160 185 -269 -14 -117 7
-246 37 -228 14 8 17 50 9 110 -9 68 -4 115 16 153 45 88 385 385 441 385 40
0 -13 -57 -179 -193 -104 -85 -190 -162 -190 -171 0 -33 39 -13 147 74 61 50
115 90 121 90 8 0 -99 -195 -140 -257 -3 -3 -27 9 -54 26 -69 45 -89 5 -22
-43 l52 -38 -52 -77 c-52 -76 -78 -69 -69 20 7 81 -3 140 -20 113 -9 -15 -13
-81 -8 -147 6 -87 0 -129 -21 -154 -39 -45 -48 -451 -9 -438 18 6 23 46 18
142 -5 107 -1 135 25 145 18 7 32 23 32 37 0 13 36 76 80 139 89 127 91 132
52 132 -25 0 259 578 309 629 80 81 17 -73 -139 -339 -87 -148 -112 -239 -41
-150 48 62 203 345 240 440 15 39 38 77 53 86 19 12 21 26 6 54 -37 69 -20
129 89 319 60 104 120 232 134 284 28 109 57 109 57 1 -1 -55 -32 -126 -120
-272 -123 -203 -140 -244 -94 -226 14 5 129 37 255 71 247 66 415 130 687 263
96 47 178 81 183 75 16 -16 -14 -75 -38 -75 -62 0 -513 -197 -513 -224 0 -25
13 -21 210 63 102 43 211 85 242 92 111 26 148 63 148 149 0 98 18 100 -226
-22 -112 -56 -251 -118 -307 -138 l-104 -37 -81 63 c-93 71 -94 73 -49 160 75
146 375 414 462 414 11 0 32 14 46 32 24 29 9 31 -161 26 -133 -5 -190 1 -195
18 -6 17 33 24 138 24 81 0 221 6 312 13 118 9 165 6 165 -10 0 -13 -10 -23
-23 -23 -139 0 -600 -328 -679 -484 -41 -81 -40 -135 1 -58 25 48 61 56 61 14
0 -49 241 -80 269 -34 18 29 -41 41 -145 29 -126 -15 -144 20 -64 130 97 134
484 363 612 363 38 0 68 12 75 30 15 39 132 39 297 0 309 -73 420 -124 572
-260 112 -101 189 -116 200 -38 12 85 -231 257 -495 350 l-149 53 69 35 c154
78 201 157 166 285 -11 44 -18 45 -284 44 -206 0 -264 -6 -236 -22 21 -12 73
-17 115 -11 100 13 102 16 -62 -104 -175 -127 -170 -128 -170 23 l0 125 -250
5 c-137 2 -311 7 -385 10 -75 4 -145 -3 -155 -13z m200 -45 c-183 -29 -188
-57 -10 -58 121 -1 163 14 105 38 -14 5 4 11 40 11 36 1 65 -6 65 -16 0 -30
123 -39 134 -9 6 15 36 27 67 27 59 0 59 1 91 -185 21 -123 53 -64 37 70 -10
86 -7 116 9 106 13 -8 22 -71 22 -150 l0 -136 -70 -11 c-88 -14 -244 25 -423
107 -75 35 -157 71 -183 81 -120 46 -79 139 60 135 58 -1 84 -6 56 -10z m1040
-14 c0 -4 -54 -41 -120 -81 -66 -41 -129 -91 -140 -111 -29 -55 -159 -130
-183 -106 -22 22 96 116 295 235 106 64 148 82 148 63z m79 -48 c-1 -27 -271
-202 -331 -215 -58 -13 -58 -12 22 59 110 98 311 199 309 156z m74 -15 c28
-73 -119 -196 -263 -220 l-80 -14 103 71 c56 39 123 98 150 131 53 68 73 75
90 32z m-1305 -89 c86 -33 51 -45 -59 -21 -53 12 -108 17 -122 11 -29 -11 -36
13 -12 37 18 18 111 5 193 -27z m-93 -81 c85 -46 164 -55 85 -10 -61 35 -47
37 37 8 35 -12 59 -28 54 -36 -5 -8 47 -27 115 -43 l124 -29 -150 -6 c-167 -7
-268 15 -347 78 -96 74 -37 102 82 38z m1255 -149 c254 -89 643 -348 526 -350
-18 -1 -45 15 -60 34 -123 167 -493 321 -795 332 -77 3 -147 13 -156 21 -29
31 383 -1 485 -37z m-1783 -731 c-42 -78 -80 -132 -83 -121 -9 26 135 288 150
274 6 -6 -24 -74 -67 -153z m-536 -413 c65 -18 135 -33 154 -34 66 -3 35 -29
-100 -83 -146 -59 -385 -92 -385 -53 0 13 32 23 75 23 89 1 282 49 312 79 26
26 33 27 -154 -9 -289 -55 -388 -29 -258 68 68 51 193 54 356 9z m87 -154 c-4
-4 -59 -49 -122 -99 l-113 -92 -54 42 -54 43 157 53 c159 54 202 66 186 53z"/>
<path d="M3304 4735 c13 -25 30 -130 35 -235 15 -254 54 -236 44 20 -8 200
-25 260 -74 260 -26 0 -26 -7 -5 -45z"/>
<path d="M2600 4169 c0 -104 27 -295 51 -354 10 -27 3 -35 -30 -35 -32 0 -41
11 -37 45 9 76 -25 364 -47 395 -18 27 -14 -148 8 -400 7 -68 66 -77 480 -79
290 -1 400 14 313 43 -14 5 -10 17 10 34 21 18 32 19 32 4 0 -12 9 -22 20 -22
26 0 26 274 0 290 -41 26 -80 -47 -80 -149 0 -99 -1 -101 -60 -101 -33 0 -60
-9 -60 -20 0 -11 -18 -20 -40 -20 -22 0 -40 9 -40 20 0 11 -36 20 -80 20 -44
0 -80 -9 -80 -20 0 -39 -271 -25 -273 15 -13 265 -87 549 -87 334z"/>
<path d="M1020 3766 c-50 -19 -143 -90 -132 -101 11 -10 192 89 192 106 0 11
-21 9 -60 -5z"/>
<path d="M2574 3706 c-5 -9 -16 -216 -24 -461 l-15 -445 -79 0 -79 0 11 75
c13 92 -7 265 -31 265 -31 0 -20 -332 12 -359 37 -31 868 -41 876 -11 3 12
-104 22 -283 26 l-288 5 13 430 c7 236 5 429 -5 429 -30 0 -42 -141 -42 -505
0 -313 -4 -355 -32 -355 -26 0 -30 14 -21 65 31 180 20 896 -13 841z"/>
<path d="M3373 3665 c-30 -109 -35 -305 -7 -305 28 0 53 127 54 275 0 69 -31
89 -47 30z"/>
<path d="M419 3499 c-195 -116 -315 -210 -295 -230 17 -17 491 269 505 305 18
48 -40 27 -210 -75z"/>
<path d="M1570 3412 c-300 -85 -341 -146 -48 -71 174 44 298 89 298 108 0 21
-92 8 -250 -37z"/>
<path d="M2000 3440 c0 -11 63 -67 140 -123 147 -107 169 -145 97 -168 -83
-26 -417 -276 -417 -312 0 -25 62 4 154 72 46 33 152 109 235 168 154 109 174
135 121 156 -58 22 -29 39 65 38 52 -1 95 8 95 19 0 11 -58 20 -131 21 -119 1
-139 7 -228 75 -100 76 -131 89 -131 54z"/>
<path d="M2815 3324 c-30 -3 -55 -16 -55 -28 0 -15 83 -19 272 -11 272 12 272
12 259 -32 -32 -113 -37 -453 -7 -453 24 0 33 46 44 242 7 133 15 252 18 265
4 22 -392 35 -531 17z"/>
<path d="M83 3037 c6 -166 16 -222 42 -252 29 -31 32 -59 20 -166 -23 -203
-12 -259 71 -353 79 -89 263 -246 289 -246 33 0 12 57 -32 86 -88 58 -263 257
-279 318 -27 100 37 279 76 216 7 -11 37 -20 66 -19 l54 0 -50 45 c-28 24 -80
67 -116 95 -63 49 -67 60 -87 250 -31 278 -63 293 -54 26z"/>
<path d="M1251 3142 c-6 -10 81 -101 193 -202 126 -113 208 -174 213 -158 15
44 -383 397 -406 360z"/>
<path d="M1547 2973 c173 -166 197 -197 207 -270 11 -83 66 -121 66 -45 0 123
-27 165 -199 310 -258 218 -299 220 -74 5z"/>
<path d="M2136 2675 c-161 -112 -276 -205 -276 -224 0 -32 62 1 223 119 176
129 225 154 206 105 -5 -14 -2 -111 7 -214 18 -203 21 -193 -96 -280 -71 -54
-34 -75 52 -29 104 55 116 90 97 277 -9 88 -16 204 -16 256 1 120 -10 120
-197 -10z"/>
<path d="M1425 2700 c-56 -34 -87 -80 -54 -80 25 0 124 59 148 89 38 46 -12
41 -94 -9z"/>
<path d="M1507 2648 c-153 -91 -241 -160 -224 -178 16 -16 61 7 242 123 74 48
135 96 135 107 0 32 -24 24 -153 -52z"/>
<path d="M1000 2593 c0 -30 74 -101 122 -118 45 -16 170 61 143 88 -14 14 -37
10 -74 -14 -52 -34 -54 -34 -108 18 -61 59 -83 66 -83 26z"/>
<path d="M920 2573 c0 -27 209 -213 240 -213 9 0 37 19 63 41 l47 42 -72 -12
c-63 -10 -80 -3 -140 60 -87 90 -138 121 -138 82z"/>
<path d="M1689 2257 l14 -342 -110 -105 c-61 -57 -140 -115 -177 -129 -59 -22
-144 -58 -179 -76 -7 -4 -18 17 -25 46 -9 34 -24 49 -41 42 -19 -7 -33 10 -42
52 -9 41 -6 66 8 71 41 13 26 99 -19 110 -40 11 -41 5 -35 -141 8 -191 -6
-197 -163 -66 -128 106 -140 113 -140 82 0 -83 376 -349 403 -286 4 8 55 31
113 51 97 33 195 88 294 165 22 17 150 104 285 193 135 89 245 169 245 179 0
34 -52 16 -154 -53 -147 -98 -151 -96 -144 85 10 242 1 369 -24 354 -14 -9
-19 -105 -15 -285 4 -186 -1 -273 -17 -279 -15 -5 -23 69 -26 239 -2 135 -6
269 -9 296 -3 28 -7 70 -8 95 -2 25 -13 45 -26 45 -16 0 -19 -91 -8 -343z"/>
<path d="M400 2566 c0 -25 107 -126 134 -126 41 0 31 28 -30 86 -53 51 -104
71 -104 40z"/>
<path d="M1390 2162 l-220 -157 -6 148 c-8 202 -64 216 -64 16 l0 -131 -160
124 c-88 69 -165 119 -172 113 -20 -21 6 -48 189 -192 l177 -139 120 64 c159
86 386 253 386 286 0 42 -19 32 -250 -132z"/>
<path d="M695 2187 c-23 -37 -25 -294 -3 -301 29 -10 47 59 47 174 0 89 -25
160 -44 127z"/>
</g>
</svg>
